<mxfile host="app.diagrams.net" modified="2020-08-26T23:08:45.550Z" agent="5.0 (Windows NT 10.0; Win64; x64) AppleWebKit/537.36 (KHTML, like Gecko) Chrome/84.0.4147.135 Safari/537.36" etag="_sybklAehO5-QNuuWgDZ" version="13.6.5" type="github" pages="2">
  <diagram name="Page-1" id="e56a1550-8fbb-45ad-956c-1786394a9013">
    <mxGraphModel dx="1447" dy="732" grid="1" gridSize="10" guides="1" tooltips="1" connect="1" arrows="1" fold="1" page="1" pageScale="1" pageWidth="2336" pageHeight="1654" background="#ffffff" math="0" shadow="0">
      <root>
        <mxCell id="0" />
        <mxCell id="1" parent="0" />
        <mxCell id="8qeOEE5i9LT7K-dfV9K4-85" style="edgeStyle=orthogonalEdgeStyle;rounded=0;orthogonalLoop=1;jettySize=auto;html=1;entryX=0.5;entryY=0;entryDx=0;entryDy=0;exitX=0.5;exitY=1;exitDx=0;exitDy=0;endArrow=none;endFill=0;" edge="1" parent="1" source="8qeOEE5i9LT7K-dfV9K4-33" target="8qeOEE5i9LT7K-dfV9K4-56">
          <mxGeometry relative="1" as="geometry">
            <Array as="points">
              <mxPoint x="830" y="850" />
              <mxPoint x="980" y="850" />
            </Array>
          </mxGeometry>
        </mxCell>
        <mxCell id="8qeOEE5i9LT7K-dfV9K4-86" style="edgeStyle=orthogonalEdgeStyle;rounded=0;orthogonalLoop=1;jettySize=auto;html=1;endArrow=none;endFill=0;entryX=0;entryY=0.5;entryDx=0;entryDy=0;" edge="1" parent="1" source="8qeOEE5i9LT7K-dfV9K4-33" target="8qeOEE5i9LT7K-dfV9K4-38">
          <mxGeometry relative="1" as="geometry">
            <mxPoint x="830" y="520" as="targetPoint" />
            <Array as="points">
              <mxPoint x="830" y="436" />
            </Array>
          </mxGeometry>
        </mxCell>
        <mxCell id="8qeOEE5i9LT7K-dfV9K4-33" value="N:M" style="shape=rhombus;perimeter=rhombusPerimeter;whiteSpace=wrap;html=1;align=center;" vertex="1" parent="1">
          <mxGeometry x="770" y="730" width="120" height="60" as="geometry" />
        </mxCell>
        <mxCell id="8qeOEE5i9LT7K-dfV9K4-107" style="edgeStyle=elbowEdgeStyle;rounded=0;orthogonalLoop=1;jettySize=auto;html=1;exitX=1;exitY=0.5;exitDx=0;exitDy=0;endArrow=none;endFill=0;" edge="1" parent="1" source="8qeOEE5i9LT7K-dfV9K4-38">
          <mxGeometry relative="1" as="geometry">
            <mxPoint x="1000" y="434" as="targetPoint" />
          </mxGeometry>
        </mxCell>
        <mxCell id="8qeOEE5i9LT7K-dfV9K4-38" value="Student" style="rounded=1;arcSize=10;whiteSpace=wrap;html=1;align=center;rotation=-1;fillColor=#dae8fc;strokeColor=#6c8ebf;" vertex="1" parent="1">
          <mxGeometry x="890" y="415" width="100" height="40" as="geometry" />
        </mxCell>
        <mxCell id="8qeOEE5i9LT7K-dfV9K4-105" style="edgeStyle=elbowEdgeStyle;rounded=0;orthogonalLoop=1;jettySize=auto;html=1;endArrow=none;endFill=0;" edge="1" parent="1" source="8qeOEE5i9LT7K-dfV9K4-39">
          <mxGeometry relative="1" as="geometry">
            <mxPoint x="1000" y="423" as="targetPoint" />
          </mxGeometry>
        </mxCell>
        <mxCell id="8qeOEE5i9LT7K-dfV9K4-39" value="stu_first_name" style="ellipse;whiteSpace=wrap;html=1;align=center;" vertex="1" parent="1">
          <mxGeometry x="1010" y="403" width="100" height="40" as="geometry" />
        </mxCell>
        <mxCell id="8qeOEE5i9LT7K-dfV9K4-41" style="edgeStyle=orthogonalEdgeStyle;rounded=0;orthogonalLoop=1;jettySize=auto;html=1;endArrow=none;endFill=0;" edge="1" parent="1" source="8qeOEE5i9LT7K-dfV9K4-40">
          <mxGeometry relative="1" as="geometry">
            <mxPoint x="1000" y="520" as="targetPoint" />
            <Array as="points">
              <mxPoint x="1000" y="375" />
            </Array>
          </mxGeometry>
        </mxCell>
        <mxCell id="8qeOEE5i9LT7K-dfV9K4-40" value="student_id" style="ellipse;whiteSpace=wrap;html=1;align=center;fontStyle=4;fillColor=#dae8fc;strokeColor=#6c8ebf;gradientColor=#ffffff;" vertex="1" parent="1">
          <mxGeometry x="1010" y="355" width="100" height="40" as="geometry" />
        </mxCell>
        <mxCell id="8qeOEE5i9LT7K-dfV9K4-106" style="edgeStyle=elbowEdgeStyle;rounded=0;orthogonalLoop=1;jettySize=auto;html=1;endArrow=none;endFill=0;" edge="1" parent="1" source="8qeOEE5i9LT7K-dfV9K4-43">
          <mxGeometry relative="1" as="geometry">
            <mxPoint x="1000" y="475" as="targetPoint" />
          </mxGeometry>
        </mxCell>
        <mxCell id="8qeOEE5i9LT7K-dfV9K4-43" value="stu_last_name" style="ellipse;whiteSpace=wrap;html=1;align=center;" vertex="1" parent="1">
          <mxGeometry x="1010" y="455" width="100" height="40" as="geometry" />
        </mxCell>
        <mxCell id="8qeOEE5i9LT7K-dfV9K4-46" style="edgeStyle=orthogonalEdgeStyle;rounded=0;orthogonalLoop=1;jettySize=auto;html=1;endArrow=none;endFill=0;" edge="1" parent="1" source="8qeOEE5i9LT7K-dfV9K4-44">
          <mxGeometry relative="1" as="geometry">
            <mxPoint x="1000" y="520" as="targetPoint" />
            <Array as="points">
              <mxPoint x="1000" y="525" />
            </Array>
          </mxGeometry>
        </mxCell>
        <mxCell id="8qeOEE5i9LT7K-dfV9K4-44" value="age" style="ellipse;whiteSpace=wrap;html=1;align=center;" vertex="1" parent="1">
          <mxGeometry x="1010" y="505" width="100" height="40" as="geometry" />
        </mxCell>
        <mxCell id="8qeOEE5i9LT7K-dfV9K4-103" style="edgeStyle=elbowEdgeStyle;rounded=0;orthogonalLoop=1;jettySize=auto;html=1;entryX=0.5;entryY=0;entryDx=0;entryDy=0;endArrow=none;endFill=0;" edge="1" parent="1" source="8qeOEE5i9LT7K-dfV9K4-47" target="8qeOEE5i9LT7K-dfV9K4-99">
          <mxGeometry relative="1" as="geometry">
            <Array as="points">
              <mxPoint x="1489" y="590" />
              <mxPoint x="1489" y="570" />
              <mxPoint x="1489" y="530" />
            </Array>
          </mxGeometry>
        </mxCell>
        <mxCell id="h8_w1N1ypf0AOFqCvdCE-18" style="edgeStyle=elbowEdgeStyle;rounded=0;orthogonalLoop=1;jettySize=auto;html=1;entryX=0.5;entryY=1;entryDx=0;entryDy=0;endArrow=none;endFill=0;" edge="1" parent="1" source="8qeOEE5i9LT7K-dfV9K4-47" target="8qeOEE5i9LT7K-dfV9K4-92">
          <mxGeometry relative="1" as="geometry">
            <Array as="points">
              <mxPoint x="1290" y="410" />
            </Array>
          </mxGeometry>
        </mxCell>
        <mxCell id="8qeOEE5i9LT7K-dfV9K4-47" value="Academic" style="rounded=1;arcSize=10;whiteSpace=wrap;html=1;align=center;rotation=-1;fillColor=#f8cecc;strokeColor=#b85450;" vertex="1" parent="1">
          <mxGeometry x="1440" y="415" width="100" height="40" as="geometry" />
        </mxCell>
        <mxCell id="h8_w1N1ypf0AOFqCvdCE-6" style="edgeStyle=elbowEdgeStyle;rounded=0;orthogonalLoop=1;jettySize=auto;html=1;endArrow=none;endFill=0;" edge="1" parent="1" source="8qeOEE5i9LT7K-dfV9K4-49">
          <mxGeometry relative="1" as="geometry">
            <mxPoint x="1560" y="415" as="targetPoint" />
          </mxGeometry>
        </mxCell>
        <mxCell id="8qeOEE5i9LT7K-dfV9K4-49" value="aca_first_name" style="ellipse;whiteSpace=wrap;html=1;align=center;" vertex="1" parent="1">
          <mxGeometry x="1580" y="395" width="100" height="40" as="geometry" />
        </mxCell>
        <mxCell id="h8_w1N1ypf0AOFqCvdCE-5" style="edgeStyle=elbowEdgeStyle;rounded=0;orthogonalLoop=1;jettySize=auto;html=1;entryX=1;entryY=0.5;entryDx=0;entryDy=0;endArrow=none;endFill=0;" edge="1" parent="1">
          <mxGeometry relative="1" as="geometry">
            <mxPoint x="1579" y="365" as="sourcePoint" />
            <mxPoint x="1538.9923847578198" y="434.12737967813587" as="targetPoint" />
          </mxGeometry>
        </mxCell>
        <mxCell id="8qeOEE5i9LT7K-dfV9K4-51" value="academic_id" style="ellipse;whiteSpace=wrap;html=1;align=center;fontStyle=4;fillColor=#f8cecc;strokeColor=#b85450;gradientColor=#ffffff;" vertex="1" parent="1">
          <mxGeometry x="1580" y="345" width="100" height="40" as="geometry" />
        </mxCell>
        <mxCell id="8qeOEE5i9LT7K-dfV9K4-110" style="edgeStyle=elbowEdgeStyle;rounded=0;orthogonalLoop=1;jettySize=auto;html=1;entryX=1;entryY=0.5;entryDx=0;entryDy=0;endArrow=none;endFill=0;" edge="1" parent="1" source="8qeOEE5i9LT7K-dfV9K4-53" target="8qeOEE5i9LT7K-dfV9K4-47">
          <mxGeometry relative="1" as="geometry">
            <Array as="points">
              <mxPoint x="1559" y="440" />
            </Array>
          </mxGeometry>
        </mxCell>
        <mxCell id="8qeOEE5i9LT7K-dfV9K4-53" value="aca_last_name" style="ellipse;whiteSpace=wrap;html=1;align=center;" vertex="1" parent="1">
          <mxGeometry x="1580" y="443" width="100" height="40" as="geometry" />
        </mxCell>
        <mxCell id="h8_w1N1ypf0AOFqCvdCE-4" style="edgeStyle=elbowEdgeStyle;rounded=0;orthogonalLoop=1;jettySize=auto;html=1;endArrow=none;endFill=0;" edge="1" parent="1">
          <mxGeometry relative="1" as="geometry">
            <mxPoint x="1559" y="460" as="targetPoint" />
            <mxPoint x="1579" y="515" as="sourcePoint" />
            <Array as="points">
              <mxPoint x="1559" y="490" />
            </Array>
          </mxGeometry>
        </mxCell>
        <mxCell id="8qeOEE5i9LT7K-dfV9K4-55" value="Attribute" style="ellipse;whiteSpace=wrap;html=1;align=center;" vertex="1" parent="1">
          <mxGeometry x="1580" y="495" width="100" height="40" as="geometry" />
        </mxCell>
        <mxCell id="h8_w1N1ypf0AOFqCvdCE-15" style="edgeStyle=elbowEdgeStyle;rounded=0;orthogonalLoop=1;jettySize=auto;html=1;entryX=0;entryY=0.5;entryDx=0;entryDy=0;endArrow=none;endFill=0;" edge="1" parent="1" source="8qeOEE5i9LT7K-dfV9K4-56" target="8qeOEE5i9LT7K-dfV9K4-133">
          <mxGeometry relative="1" as="geometry">
            <Array as="points">
              <mxPoint x="980" y="1050" />
            </Array>
          </mxGeometry>
        </mxCell>
        <mxCell id="8qeOEE5i9LT7K-dfV9K4-56" value="Courses" style="rounded=1;arcSize=10;whiteSpace=wrap;html=1;align=center;rotation=-1;fillColor=#fff2cc;strokeColor=#d6b656;" vertex="1" parent="1">
          <mxGeometry x="930" y="870" width="100" height="40" as="geometry" />
        </mxCell>
        <mxCell id="8qeOEE5i9LT7K-dfV9K4-57" style="edgeStyle=orthogonalEdgeStyle;rounded=0;orthogonalLoop=1;jettySize=auto;html=1;endArrow=none;endFill=0;" edge="1" parent="1" source="8qeOEE5i9LT7K-dfV9K4-58">
          <mxGeometry relative="1" as="geometry">
            <mxPoint x="1029.76" y="890" as="targetPoint" />
            <Array as="points">
              <mxPoint x="1050.76" y="870" />
              <mxPoint x="1050.76" y="890" />
              <mxPoint x="1029.76" y="890" />
            </Array>
          </mxGeometry>
        </mxCell>
        <mxCell id="8qeOEE5i9LT7K-dfV9K4-58" value="course_name" style="ellipse;whiteSpace=wrap;html=1;align=center;" vertex="1" parent="1">
          <mxGeometry x="1070.26" y="850" width="100" height="40" as="geometry" />
        </mxCell>
        <mxCell id="8qeOEE5i9LT7K-dfV9K4-59" style="edgeStyle=orthogonalEdgeStyle;rounded=0;orthogonalLoop=1;jettySize=auto;html=1;endArrow=none;endFill=0;" edge="1" parent="1" source="8qeOEE5i9LT7K-dfV9K4-60">
          <mxGeometry relative="1" as="geometry">
            <mxPoint x="1050.76" y="880" as="targetPoint" />
            <Array as="points">
              <mxPoint x="1050.76" y="820" />
              <mxPoint x="1050.76" y="869" />
            </Array>
          </mxGeometry>
        </mxCell>
        <mxCell id="8qeOEE5i9LT7K-dfV9K4-60" value="course_id" style="ellipse;whiteSpace=wrap;html=1;align=center;fontStyle=4;fillColor=#fff2cc;strokeColor=#d6b656;gradientColor=#ffffff;" vertex="1" parent="1">
          <mxGeometry x="1070.26" y="800" width="100" height="40" as="geometry" />
        </mxCell>
        <mxCell id="8qeOEE5i9LT7K-dfV9K4-104" style="edgeStyle=elbowEdgeStyle;rounded=0;orthogonalLoop=1;jettySize=auto;html=1;endArrow=none;endFill=0;" edge="1" parent="1" source="8qeOEE5i9LT7K-dfV9K4-62">
          <mxGeometry relative="1" as="geometry">
            <mxPoint x="1050.76" y="918" as="targetPoint" />
          </mxGeometry>
        </mxCell>
        <mxCell id="8qeOEE5i9LT7K-dfV9K4-62" value="&lt;span&gt;capacity_teach&lt;/span&gt;" style="ellipse;whiteSpace=wrap;html=1;align=center;" vertex="1" parent="1">
          <mxGeometry x="1070.26" y="898" width="100" height="40" as="geometry" />
        </mxCell>
        <mxCell id="8qeOEE5i9LT7K-dfV9K4-63" style="edgeStyle=orthogonalEdgeStyle;rounded=0;orthogonalLoop=1;jettySize=auto;html=1;endArrow=none;endFill=0;" edge="1" parent="1" source="8qeOEE5i9LT7K-dfV9K4-64">
          <mxGeometry relative="1" as="geometry">
            <mxPoint x="1030.76" y="890" as="targetPoint" />
            <Array as="points">
              <mxPoint x="1050.76" y="970" />
              <mxPoint x="1050.76" y="890" />
              <mxPoint x="1030.76" y="890" />
            </Array>
          </mxGeometry>
        </mxCell>
        <mxCell id="8qeOEE5i9LT7K-dfV9K4-64" value="Attribute" style="ellipse;whiteSpace=wrap;html=1;align=center;" vertex="1" parent="1">
          <mxGeometry x="1070.26" y="950" width="100" height="40" as="geometry" />
        </mxCell>
        <mxCell id="8qeOEE5i9LT7K-dfV9K4-65" value="classroom" style="rounded=1;arcSize=10;whiteSpace=wrap;html=1;align=center;rotation=-1;fillColor=#e1d5e7;strokeColor=#9673a6;" vertex="1" parent="1">
          <mxGeometry x="1260" y="870" width="100" height="40" as="geometry" />
        </mxCell>
        <mxCell id="8qeOEE5i9LT7K-dfV9K4-66" style="edgeStyle=orthogonalEdgeStyle;rounded=0;orthogonalLoop=1;jettySize=auto;html=1;endArrow=none;endFill=0;" edge="1" parent="1" source="8qeOEE5i9LT7K-dfV9K4-67">
          <mxGeometry relative="1" as="geometry">
            <mxPoint x="1360" y="885" as="targetPoint" />
            <Array as="points">
              <mxPoint x="1380" y="865" />
              <mxPoint x="1380" y="885" />
              <mxPoint x="1360" y="885" />
            </Array>
          </mxGeometry>
        </mxCell>
        <mxCell id="8qeOEE5i9LT7K-dfV9K4-67" value="capacity_place" style="ellipse;whiteSpace=wrap;html=1;align=center;" vertex="1" parent="1">
          <mxGeometry x="1400" y="845" width="100" height="40" as="geometry" />
        </mxCell>
        <mxCell id="8qeOEE5i9LT7K-dfV9K4-68" style="edgeStyle=orthogonalEdgeStyle;rounded=0;orthogonalLoop=1;jettySize=auto;html=1;endArrow=none;endFill=0;" edge="1" parent="1" source="8qeOEE5i9LT7K-dfV9K4-69">
          <mxGeometry relative="1" as="geometry">
            <mxPoint x="1360" y="885" as="targetPoint" />
            <Array as="points">
              <mxPoint x="1380" y="815" />
              <mxPoint x="1380" y="885" />
              <mxPoint x="1360" y="885" />
            </Array>
          </mxGeometry>
        </mxCell>
        <mxCell id="8qeOEE5i9LT7K-dfV9K4-69" value="classroom_id" style="ellipse;whiteSpace=wrap;html=1;align=center;fontStyle=4;fillColor=#e1d5e7;strokeColor=#9673a6;gradientColor=#ffffff;" vertex="1" parent="1">
          <mxGeometry x="1400" y="795" width="100" height="40" as="geometry" />
        </mxCell>
        <mxCell id="8qeOEE5i9LT7K-dfV9K4-70" style="edgeStyle=orthogonalEdgeStyle;rounded=0;orthogonalLoop=1;jettySize=auto;html=1;endArrow=none;endFill=0;" edge="1" parent="1" source="8qeOEE5i9LT7K-dfV9K4-71">
          <mxGeometry relative="1" as="geometry">
            <Array as="points">
              <mxPoint x="1380" y="920" />
              <mxPoint x="1380" y="884" />
            </Array>
            <mxPoint x="1380" y="884" as="targetPoint" />
          </mxGeometry>
        </mxCell>
        <mxCell id="8qeOEE5i9LT7K-dfV9K4-71" value="Attribute" style="ellipse;whiteSpace=wrap;html=1;align=center;" vertex="1" parent="1">
          <mxGeometry x="1400" y="893" width="100" height="40" as="geometry" />
        </mxCell>
        <mxCell id="8qeOEE5i9LT7K-dfV9K4-72" style="edgeStyle=orthogonalEdgeStyle;rounded=0;orthogonalLoop=1;jettySize=auto;html=1;endArrow=none;endFill=0;" edge="1" parent="1" source="8qeOEE5i9LT7K-dfV9K4-73">
          <mxGeometry relative="1" as="geometry">
            <mxPoint x="1380" y="885" as="targetPoint" />
            <Array as="points">
              <mxPoint x="1380" y="965" />
              <mxPoint x="1380" y="885" />
              <mxPoint x="1360" y="885" />
            </Array>
          </mxGeometry>
        </mxCell>
        <mxCell id="8qeOEE5i9LT7K-dfV9K4-73" value="Attribute" style="ellipse;whiteSpace=wrap;html=1;align=center;" vertex="1" parent="1">
          <mxGeometry x="1400" y="945" width="100" height="40" as="geometry" />
        </mxCell>
        <mxCell id="8qeOEE5i9LT7K-dfV9K4-97" style="edgeStyle=elbowEdgeStyle;rounded=0;orthogonalLoop=1;jettySize=auto;html=1;endArrow=none;endFill=0;" edge="1" parent="1" source="8qeOEE5i9LT7K-dfV9K4-83">
          <mxGeometry relative="1" as="geometry">
            <mxPoint x="1000" y="520" as="targetPoint" />
            <Array as="points">
              <mxPoint x="1000" y="620" />
              <mxPoint x="990" y="528" />
              <mxPoint x="990" y="530" />
              <mxPoint x="990" y="570" />
            </Array>
          </mxGeometry>
        </mxCell>
        <mxCell id="8qeOEE5i9LT7K-dfV9K4-83" value="genere" style="ellipse;whiteSpace=wrap;html=1;align=center;" vertex="1" parent="1">
          <mxGeometry x="1010" y="550" width="100" height="40" as="geometry" />
        </mxCell>
        <mxCell id="8qeOEE5i9LT7K-dfV9K4-114" style="edgeStyle=elbowEdgeStyle;rounded=0;orthogonalLoop=1;jettySize=auto;html=1;entryX=1;entryY=0.5;entryDx=0;entryDy=0;endArrow=none;endFill=0;" edge="1" parent="1" source="8qeOEE5i9LT7K-dfV9K4-87" target="8qeOEE5i9LT7K-dfV9K4-33">
          <mxGeometry relative="1" as="geometry" />
        </mxCell>
        <mxCell id="8qeOEE5i9LT7K-dfV9K4-87" value="student_id1" style="ellipse;whiteSpace=wrap;html=1;align=center;dashed=1;fillColor=#dae8fc;strokeColor=#6c8ebf;gradientColor=#ffffff;gradientDirection=east;" vertex="1" parent="1">
          <mxGeometry x="930" y="730" width="100" height="40" as="geometry" />
        </mxCell>
        <mxCell id="8qeOEE5i9LT7K-dfV9K4-113" style="edgeStyle=elbowEdgeStyle;rounded=0;orthogonalLoop=1;jettySize=auto;html=1;entryX=1;entryY=0.5;entryDx=0;entryDy=0;endArrow=none;endFill=0;" edge="1" parent="1" source="8qeOEE5i9LT7K-dfV9K4-90" target="8qeOEE5i9LT7K-dfV9K4-33">
          <mxGeometry relative="1" as="geometry" />
        </mxCell>
        <mxCell id="8qeOEE5i9LT7K-dfV9K4-90" value="course_id1" style="ellipse;whiteSpace=wrap;html=1;align=center;fontStyle=0;dashed=1;fillColor=#fff2cc;strokeColor=#d6b656;gradientColor=#ffffff;gradientDirection=east;" vertex="1" parent="1">
          <mxGeometry x="930" y="778" width="100" height="40" as="geometry" />
        </mxCell>
        <mxCell id="8qeOEE5i9LT7K-dfV9K4-96" style="edgeStyle=orthogonalEdgeStyle;rounded=0;orthogonalLoop=1;jettySize=auto;html=1;entryX=0.5;entryY=0;entryDx=0;entryDy=0;endArrow=none;endFill=0;" edge="1" parent="1" source="8qeOEE5i9LT7K-dfV9K4-92" target="8qeOEE5i9LT7K-dfV9K4-38">
          <mxGeometry relative="1" as="geometry" />
        </mxCell>
        <mxCell id="h8_w1N1ypf0AOFqCvdCE-19" style="edgeStyle=elbowEdgeStyle;rounded=0;orthogonalLoop=1;jettySize=auto;html=1;entryX=0;entryY=0.5;entryDx=0;entryDy=0;endArrow=none;endFill=0;" edge="1" parent="1" source="8qeOEE5i9LT7K-dfV9K4-92" target="8qeOEE5i9LT7K-dfV9K4-118">
          <mxGeometry relative="1" as="geometry" />
        </mxCell>
        <mxCell id="h8_w1N1ypf0AOFqCvdCE-20" style="edgeStyle=elbowEdgeStyle;rounded=0;orthogonalLoop=1;jettySize=auto;html=1;endArrow=none;endFill=0;" edge="1" parent="1" source="8qeOEE5i9LT7K-dfV9K4-92" target="8qeOEE5i9LT7K-dfV9K4-119">
          <mxGeometry relative="1" as="geometry" />
        </mxCell>
        <mxCell id="8qeOEE5i9LT7K-dfV9K4-92" value="N:M" style="shape=rhombus;perimeter=rhombusPerimeter;whiteSpace=wrap;html=1;align=center;" vertex="1" parent="1">
          <mxGeometry x="1230" y="310" width="120" height="60" as="geometry" />
        </mxCell>
        <mxCell id="8qeOEE5i9LT7K-dfV9K4-100" style="edgeStyle=elbowEdgeStyle;rounded=0;orthogonalLoop=1;jettySize=auto;html=1;endArrow=none;endFill=0;entryX=0.5;entryY=1;entryDx=0;entryDy=0;" edge="1" parent="1" source="8qeOEE5i9LT7K-dfV9K4-98" target="8qeOEE5i9LT7K-dfV9K4-38">
          <mxGeometry relative="1" as="geometry">
            <mxPoint x="920" y="570" as="targetPoint" />
            <Array as="points">
              <mxPoint x="940" y="500" />
              <mxPoint x="930" y="550" />
              <mxPoint x="940" y="650" />
              <mxPoint x="940" y="570" />
              <mxPoint x="950" y="700" />
            </Array>
          </mxGeometry>
        </mxCell>
        <mxCell id="8qeOEE5i9LT7K-dfV9K4-101" style="edgeStyle=elbowEdgeStyle;rounded=0;orthogonalLoop=1;jettySize=auto;html=1;entryX=0;entryY=0.5;entryDx=0;entryDy=0;endArrow=none;endFill=0;exitX=1;exitY=0.5;exitDx=0;exitDy=0;" edge="1" parent="1" source="8qeOEE5i9LT7K-dfV9K4-98" target="8qeOEE5i9LT7K-dfV9K4-65">
          <mxGeometry relative="1" as="geometry">
            <Array as="points">
              <mxPoint x="1240" y="750" />
              <mxPoint x="1260" y="820" />
            </Array>
          </mxGeometry>
        </mxCell>
        <mxCell id="8qeOEE5i9LT7K-dfV9K4-98" value="1:N" style="shape=rhombus;perimeter=rhombusPerimeter;whiteSpace=wrap;html=1;align=center;" vertex="1" parent="1">
          <mxGeometry x="1040" y="668" width="120" height="60" as="geometry" />
        </mxCell>
        <mxCell id="h8_w1N1ypf0AOFqCvdCE-16" style="edgeStyle=elbowEdgeStyle;rounded=0;orthogonalLoop=1;jettySize=auto;html=1;entryX=0;entryY=0.75;entryDx=0;entryDy=0;endArrow=none;endFill=0;" edge="1" parent="1" source="8qeOEE5i9LT7K-dfV9K4-99" target="8qeOEE5i9LT7K-dfV9K4-56">
          <mxGeometry relative="1" as="geometry">
            <Array as="points">
              <mxPoint x="1480" y="1120" />
            </Array>
          </mxGeometry>
        </mxCell>
        <mxCell id="h8_w1N1ypf0AOFqCvdCE-21" style="edgeStyle=elbowEdgeStyle;rounded=0;orthogonalLoop=1;jettySize=auto;html=1;entryX=0;entryY=0.5;entryDx=0;entryDy=0;endArrow=none;endFill=0;" edge="1" parent="1" source="8qeOEE5i9LT7K-dfV9K4-99" target="8qeOEE5i9LT7K-dfV9K4-130">
          <mxGeometry relative="1" as="geometry" />
        </mxCell>
        <mxCell id="h8_w1N1ypf0AOFqCvdCE-22" style="edgeStyle=elbowEdgeStyle;rounded=0;orthogonalLoop=1;jettySize=auto;html=1;entryX=0;entryY=0.5;entryDx=0;entryDy=0;endArrow=none;endFill=0;" edge="1" parent="1" source="8qeOEE5i9LT7K-dfV9K4-99" target="8qeOEE5i9LT7K-dfV9K4-129">
          <mxGeometry relative="1" as="geometry" />
        </mxCell>
        <mxCell id="8qeOEE5i9LT7K-dfV9K4-99" value="N:M" style="shape=rhombus;perimeter=rhombusPerimeter;whiteSpace=wrap;html=1;align=center;" vertex="1" parent="1">
          <mxGeometry x="1550" y="595" width="120" height="60" as="geometry" />
        </mxCell>
        <mxCell id="8qeOEE5i9LT7K-dfV9K4-118" value="student_id2" style="ellipse;whiteSpace=wrap;html=1;align=center;dashed=1;fillColor=#dae8fc;strokeColor=#6c8ebf;gradientColor=#ffffff;gradientDirection=east;" vertex="1" parent="1">
          <mxGeometry x="1380" y="290" width="100" height="40" as="geometry" />
        </mxCell>
        <mxCell id="8qeOEE5i9LT7K-dfV9K4-119" value="academic_id1" style="ellipse;whiteSpace=wrap;html=1;align=center;fontStyle=0;dashed=1;fillColor=#f8cecc;strokeColor=#b85450;gradientColor=#ffffff;gradientDirection=east;" vertex="1" parent="1">
          <mxGeometry x="1380" y="345" width="100" height="40" as="geometry" />
        </mxCell>
        <mxCell id="8qeOEE5i9LT7K-dfV9K4-128" style="edgeStyle=elbowEdgeStyle;rounded=0;orthogonalLoop=1;jettySize=auto;html=1;exitX=0;exitY=0.5;exitDx=0;exitDy=0;endArrow=none;endFill=0;" edge="1" parent="1" source="8qeOEE5i9LT7K-dfV9K4-127">
          <mxGeometry relative="1" as="geometry">
            <mxPoint x="1000" y="570" as="targetPoint" />
            <Array as="points">
              <mxPoint x="1000" y="600" />
            </Array>
          </mxGeometry>
        </mxCell>
        <mxCell id="8qeOEE5i9LT7K-dfV9K4-127" value="classroom_id1" style="ellipse;whiteSpace=wrap;html=1;align=center;fontStyle=0;fillColor=#e1d5e7;strokeColor=#9673a6;gradientColor=#ffffff;gradientDirection=east;" vertex="1" parent="1">
          <mxGeometry x="1010" y="605" width="100" height="40" as="geometry" />
        </mxCell>
        <mxCell id="8qeOEE5i9LT7K-dfV9K4-129" value="course_id2" style="ellipse;whiteSpace=wrap;html=1;align=center;fontStyle=0;fillColor=#fff2cc;strokeColor=#d6b656;gradientColor=#ffffff;gradientDirection=east;dashed=1;" vertex="1" parent="1">
          <mxGeometry x="1690" y="628" width="100" height="40" as="geometry" />
        </mxCell>
        <mxCell id="8qeOEE5i9LT7K-dfV9K4-130" value="academic_id2" style="ellipse;whiteSpace=wrap;html=1;align=center;fontStyle=0;dashed=1;fillColor=#f8cecc;strokeColor=#b85450;gradientColor=#ffffff;gradientDirection=east;" vertex="1" parent="1">
          <mxGeometry x="1690" y="580" width="100" height="40" as="geometry" />
        </mxCell>
        <mxCell id="8qeOEE5i9LT7K-dfV9K4-134" style="edgeStyle=elbowEdgeStyle;rounded=0;orthogonalLoop=1;jettySize=auto;html=1;entryX=0.5;entryY=1;entryDx=0;entryDy=0;endArrow=none;endFill=0;" edge="1" parent="1" source="8qeOEE5i9LT7K-dfV9K4-133" target="8qeOEE5i9LT7K-dfV9K4-65">
          <mxGeometry relative="1" as="geometry" />
        </mxCell>
        <mxCell id="8qeOEE5i9LT7K-dfV9K4-138" style="edgeStyle=elbowEdgeStyle;rounded=0;orthogonalLoop=1;jettySize=auto;html=1;entryX=0;entryY=0.5;entryDx=0;entryDy=0;endArrow=none;endFill=0;" edge="1" parent="1" source="8qeOEE5i9LT7K-dfV9K4-133" target="8qeOEE5i9LT7K-dfV9K4-136">
          <mxGeometry relative="1" as="geometry" />
        </mxCell>
        <mxCell id="8qeOEE5i9LT7K-dfV9K4-139" style="edgeStyle=elbowEdgeStyle;rounded=0;orthogonalLoop=1;jettySize=auto;html=1;entryX=0;entryY=0.5;entryDx=0;entryDy=0;endArrow=none;endFill=0;" edge="1" parent="1" source="8qeOEE5i9LT7K-dfV9K4-133" target="8qeOEE5i9LT7K-dfV9K4-137">
          <mxGeometry relative="1" as="geometry" />
        </mxCell>
        <mxCell id="8qeOEE5i9LT7K-dfV9K4-133" value="N:M" style="shape=rhombus;perimeter=rhombusPerimeter;whiteSpace=wrap;html=1;align=center;gradientColor=#ffffff;" vertex="1" parent="1">
          <mxGeometry x="1250" y="1020" width="120" height="70" as="geometry" />
        </mxCell>
        <mxCell id="8qeOEE5i9LT7K-dfV9K4-136" value="classroom_id2" style="ellipse;whiteSpace=wrap;html=1;align=center;fontStyle=0;fillColor=#e1d5e7;strokeColor=#9673a6;gradientColor=#ffffff;gradientDirection=east;dashed=1;" vertex="1" parent="1">
          <mxGeometry x="1400" y="1010" width="100" height="40" as="geometry" />
        </mxCell>
        <mxCell id="8qeOEE5i9LT7K-dfV9K4-137" value="course_id2" style="ellipse;whiteSpace=wrap;html=1;align=center;fontStyle=0;dashed=1;fillColor=#fff2cc;strokeColor=#d6b656;gradientColor=#ffffff;gradientDirection=east;" vertex="1" parent="1">
          <mxGeometry x="1400" y="1060" width="100" height="40" as="geometry" />
        </mxCell>
        <mxCell id="h8_w1N1ypf0AOFqCvdCE-3" value="Staff" style="rounded=1;arcSize=10;whiteSpace=wrap;html=1;align=center;fillColor=#647687;strokeColor=#314354;fontColor=#ffffff;" vertex="1" parent="1">
          <mxGeometry x="1820" y="415" width="100" height="40" as="geometry" />
        </mxCell>
        <mxCell id="h8_w1N1ypf0AOFqCvdCE-7" style="edgeStyle=elbowEdgeStyle;rounded=0;orthogonalLoop=1;jettySize=auto;html=1;endArrow=none;endFill=0;" edge="1" parent="1" source="h8_w1N1ypf0AOFqCvdCE-8">
          <mxGeometry relative="1" as="geometry">
            <mxPoint x="1941.01" y="415" as="targetPoint" />
          </mxGeometry>
        </mxCell>
        <mxCell id="h8_w1N1ypf0AOFqCvdCE-8" value="staff_first_name" style="ellipse;whiteSpace=wrap;html=1;align=center;" vertex="1" parent="1">
          <mxGeometry x="1961.01" y="395" width="100" height="40" as="geometry" />
        </mxCell>
        <mxCell id="h8_w1N1ypf0AOFqCvdCE-9" style="edgeStyle=elbowEdgeStyle;rounded=0;orthogonalLoop=1;jettySize=auto;html=1;entryX=1;entryY=0.5;entryDx=0;entryDy=0;endArrow=none;endFill=0;" edge="1" parent="1">
          <mxGeometry relative="1" as="geometry">
            <mxPoint x="1960.01" y="365" as="sourcePoint" />
            <mxPoint x="1920.0023847578202" y="434.127379678136" as="targetPoint" />
          </mxGeometry>
        </mxCell>
        <mxCell id="h8_w1N1ypf0AOFqCvdCE-10" value="staff_id" style="ellipse;whiteSpace=wrap;html=1;align=center;fontStyle=4;fillColor=#647687;strokeColor=#314354;fontColor=#ffffff;gradientColor=#ffffff;" vertex="1" parent="1">
          <mxGeometry x="1961.01" y="345" width="100" height="40" as="geometry" />
        </mxCell>
        <mxCell id="h8_w1N1ypf0AOFqCvdCE-11" style="edgeStyle=elbowEdgeStyle;rounded=0;orthogonalLoop=1;jettySize=auto;html=1;entryX=1;entryY=0.5;entryDx=0;entryDy=0;endArrow=none;endFill=0;" edge="1" parent="1" source="h8_w1N1ypf0AOFqCvdCE-12">
          <mxGeometry relative="1" as="geometry">
            <mxPoint x="1921.0023847578193" y="434.127379678136" as="targetPoint" />
            <Array as="points">
              <mxPoint x="1940.01" y="440" />
            </Array>
          </mxGeometry>
        </mxCell>
        <mxCell id="h8_w1N1ypf0AOFqCvdCE-12" value="staff_last_name" style="ellipse;whiteSpace=wrap;html=1;align=center;" vertex="1" parent="1">
          <mxGeometry x="1961.01" y="443" width="100" height="40" as="geometry" />
        </mxCell>
        <mxCell id="h8_w1N1ypf0AOFqCvdCE-13" style="edgeStyle=elbowEdgeStyle;rounded=0;orthogonalLoop=1;jettySize=auto;html=1;endArrow=none;endFill=0;" edge="1" parent="1">
          <mxGeometry relative="1" as="geometry">
            <mxPoint x="1940.01" y="460" as="targetPoint" />
            <mxPoint x="1960.01" y="515" as="sourcePoint" />
            <Array as="points">
              <mxPoint x="1940.01" y="490" />
            </Array>
          </mxGeometry>
        </mxCell>
        <mxCell id="h8_w1N1ypf0AOFqCvdCE-14" value="Attribute" style="ellipse;whiteSpace=wrap;html=1;align=center;" vertex="1" parent="1">
          <mxGeometry x="1961.01" y="495" width="100" height="40" as="geometry" />
        </mxCell>
        <mxCell id="h8_w1N1ypf0AOFqCvdCE-23" value="events" style="rounded=1;arcSize=10;whiteSpace=wrap;html=1;align=center;fillColor=#d5e8d4;strokeColor=#82b366;gradientColor=#97d077;" vertex="1" parent="1">
          <mxGeometry x="1820" y="860" width="100" height="40" as="geometry" />
        </mxCell>
        <mxCell id="h8_w1N1ypf0AOFqCvdCE-24" style="edgeStyle=elbowEdgeStyle;rounded=0;orthogonalLoop=1;jettySize=auto;html=1;endArrow=none;endFill=0;" edge="1" parent="1" source="h8_w1N1ypf0AOFqCvdCE-25">
          <mxGeometry relative="1" as="geometry">
            <mxPoint x="1941.0100000000002" y="860" as="targetPoint" />
          </mxGeometry>
        </mxCell>
        <mxCell id="h8_w1N1ypf0AOFqCvdCE-25" value="date" style="ellipse;whiteSpace=wrap;html=1;align=center;" vertex="1" parent="1">
          <mxGeometry x="1961.01" y="840" width="100" height="40" as="geometry" />
        </mxCell>
        <mxCell id="h8_w1N1ypf0AOFqCvdCE-26" style="edgeStyle=elbowEdgeStyle;rounded=0;orthogonalLoop=1;jettySize=auto;html=1;entryX=1;entryY=0.5;entryDx=0;entryDy=0;endArrow=none;endFill=0;" edge="1" parent="1">
          <mxGeometry relative="1" as="geometry">
            <mxPoint x="1960.0100000000002" y="810" as="sourcePoint" />
            <mxPoint x="1920.0023847578204" y="879.1273796781361" as="targetPoint" />
          </mxGeometry>
        </mxCell>
        <mxCell id="h8_w1N1ypf0AOFqCvdCE-27" value="id_event" style="ellipse;whiteSpace=wrap;html=1;align=center;fontStyle=4;strokeColor=#82b366;fillColor=#B9E0A5;gradientColor=#FFFFFF;" vertex="1" parent="1">
          <mxGeometry x="1961.01" y="790" width="100" height="40" as="geometry" />
        </mxCell>
        <mxCell id="h8_w1N1ypf0AOFqCvdCE-28" style="edgeStyle=elbowEdgeStyle;rounded=0;orthogonalLoop=1;jettySize=auto;html=1;entryX=1;entryY=0.5;entryDx=0;entryDy=0;endArrow=none;endFill=0;" edge="1" parent="1" source="h8_w1N1ypf0AOFqCvdCE-29">
          <mxGeometry relative="1" as="geometry">
            <mxPoint x="1921.0023847578195" y="879.1273796781361" as="targetPoint" />
            <Array as="points">
              <mxPoint x="1940.01" y="885" />
            </Array>
          </mxGeometry>
        </mxCell>
        <mxCell id="h8_w1N1ypf0AOFqCvdCE-29" value="hoster" style="ellipse;whiteSpace=wrap;html=1;align=center;" vertex="1" parent="1">
          <mxGeometry x="1961.01" y="888" width="100" height="40" as="geometry" />
        </mxCell>
        <mxCell id="h8_w1N1ypf0AOFqCvdCE-30" style="edgeStyle=elbowEdgeStyle;rounded=0;orthogonalLoop=1;jettySize=auto;html=1;endArrow=none;endFill=0;" edge="1" parent="1">
          <mxGeometry relative="1" as="geometry">
            <mxPoint x="1940.0100000000002" y="905" as="targetPoint" />
            <mxPoint x="1960.0100000000002" y="960" as="sourcePoint" />
            <Array as="points">
              <mxPoint x="1940.01" y="935" />
            </Array>
          </mxGeometry>
        </mxCell>
        <mxCell id="h8_w1N1ypf0AOFqCvdCE-31" value="guest" style="ellipse;whiteSpace=wrap;html=1;align=center;" vertex="1" parent="1">
          <mxGeometry x="1961.01" y="940" width="100" height="40" as="geometry" />
        </mxCell>
        <mxCell id="h8_w1N1ypf0AOFqCvdCE-32" value="Attendants" style="rounded=1;arcSize=10;whiteSpace=wrap;html=1;align=center;fillColor=#a20025;strokeColor=#6F0000;fontColor=#ffffff;" vertex="1" parent="1">
          <mxGeometry x="1360" y="120" width="100" height="40" as="geometry" />
        </mxCell>
      </root>
    </mxGraphModel>
  </diagram>
  <diagram id="rUrMMTXEqBsC7TK3hZof" name="Page-2">
    <mxGraphModel dx="2522" dy="439" grid="1" gridSize="10" guides="1" tooltips="1" connect="1" arrows="1" fold="1" page="1" pageScale="1" pageWidth="827" pageHeight="1169" math="0" shadow="0">
      <root>
        <mxCell id="d3nHEwqmsqpDYWHRqIm4-0" />
        <mxCell id="d3nHEwqmsqpDYWHRqIm4-1" parent="d3nHEwqmsqpDYWHRqIm4-0" />
        <mxCell id="i4tNo_sde4076tbIhIRC-0" value="Student" style="shape=table;startSize=30;container=1;collapsible=1;childLayout=tableLayout;fixedRows=1;rowLines=0;fontStyle=1;align=center;resizeLast=1;" vertex="1" parent="d3nHEwqmsqpDYWHRqIm4-1">
          <mxGeometry x="-1590" y="30" width="230" height="220" as="geometry" />
        </mxCell>
        <mxCell id="i4tNo_sde4076tbIhIRC-1" value="" style="shape=partialRectangle;collapsible=0;dropTarget=0;pointerEvents=0;fillColor=none;top=0;left=0;bottom=1;right=0;points=[[0,0.5],[1,0.5]];portConstraint=eastwest;" vertex="1" parent="i4tNo_sde4076tbIhIRC-0">
          <mxGeometry y="30" width="230" height="30" as="geometry" />
        </mxCell>
        <mxCell id="i4tNo_sde4076tbIhIRC-2" value="PK" style="shape=partialRectangle;connectable=0;fillColor=none;top=0;left=0;bottom=0;right=0;fontStyle=1;overflow=hidden;" vertex="1" parent="i4tNo_sde4076tbIhIRC-1">
          <mxGeometry width="30" height="30" as="geometry" />
        </mxCell>
        <mxCell id="i4tNo_sde4076tbIhIRC-3" value="UniqueID" style="shape=partialRectangle;connectable=0;fillColor=none;top=0;left=0;bottom=0;right=0;align=left;spacingLeft=6;fontStyle=5;overflow=hidden;" vertex="1" parent="i4tNo_sde4076tbIhIRC-1">
          <mxGeometry x="30" width="200" height="30" as="geometry" />
        </mxCell>
        <mxCell id="i4tNo_sde4076tbIhIRC-4" value="" style="shape=partialRectangle;collapsible=0;dropTarget=0;pointerEvents=0;fillColor=none;top=0;left=0;bottom=0;right=0;points=[[0,0.5],[1,0.5]];portConstraint=eastwest;" vertex="1" parent="i4tNo_sde4076tbIhIRC-0">
          <mxGeometry y="60" width="230" height="30" as="geometry" />
        </mxCell>
        <mxCell id="i4tNo_sde4076tbIhIRC-5" value="" style="shape=partialRectangle;connectable=0;fillColor=none;top=0;left=0;bottom=0;right=0;editable=1;overflow=hidden;" vertex="1" parent="i4tNo_sde4076tbIhIRC-4">
          <mxGeometry width="30" height="30" as="geometry" />
        </mxCell>
        <mxCell id="i4tNo_sde4076tbIhIRC-6" value="first_name" style="shape=partialRectangle;connectable=0;fillColor=none;top=0;left=0;bottom=0;right=0;align=left;spacingLeft=6;overflow=hidden;" vertex="1" parent="i4tNo_sde4076tbIhIRC-4">
          <mxGeometry x="30" width="200" height="30" as="geometry" />
        </mxCell>
        <mxCell id="i4tNo_sde4076tbIhIRC-7" value="" style="shape=partialRectangle;collapsible=0;dropTarget=0;pointerEvents=0;fillColor=none;top=0;left=0;bottom=0;right=0;points=[[0,0.5],[1,0.5]];portConstraint=eastwest;" vertex="1" parent="i4tNo_sde4076tbIhIRC-0">
          <mxGeometry y="90" width="230" height="30" as="geometry" />
        </mxCell>
        <mxCell id="i4tNo_sde4076tbIhIRC-8" value="" style="shape=partialRectangle;connectable=0;fillColor=none;top=0;left=0;bottom=0;right=0;editable=1;overflow=hidden;" vertex="1" parent="i4tNo_sde4076tbIhIRC-7">
          <mxGeometry width="30" height="30" as="geometry" />
        </mxCell>
        <mxCell id="i4tNo_sde4076tbIhIRC-9" value="last_name" style="shape=partialRectangle;connectable=0;fillColor=none;top=0;left=0;bottom=0;right=0;align=left;spacingLeft=6;overflow=hidden;" vertex="1" parent="i4tNo_sde4076tbIhIRC-7">
          <mxGeometry x="30" width="200" height="30" as="geometry" />
        </mxCell>
        <mxCell id="i4tNo_sde4076tbIhIRC-10" value="" style="shape=partialRectangle;collapsible=0;dropTarget=0;pointerEvents=0;fillColor=none;top=0;left=0;bottom=0;right=0;points=[[0,0.5],[1,0.5]];portConstraint=eastwest;" vertex="1" parent="i4tNo_sde4076tbIhIRC-0">
          <mxGeometry y="120" width="230" height="30" as="geometry" />
        </mxCell>
        <mxCell id="i4tNo_sde4076tbIhIRC-11" value="" style="shape=partialRectangle;connectable=0;fillColor=none;top=0;left=0;bottom=0;right=0;editable=1;overflow=hidden;" vertex="1" parent="i4tNo_sde4076tbIhIRC-10">
          <mxGeometry width="30" height="30" as="geometry" />
        </mxCell>
        <mxCell id="i4tNo_sde4076tbIhIRC-12" value="Row 3" style="shape=partialRectangle;connectable=0;fillColor=none;top=0;left=0;bottom=0;right=0;align=left;spacingLeft=6;overflow=hidden;" vertex="1" parent="i4tNo_sde4076tbIhIRC-10">
          <mxGeometry x="30" width="200" height="30" as="geometry" />
        </mxCell>
      </root>
    </mxGraphModel>
  </diagram>
</mxfile>
